<svg xmlns="http://www.w3.org/2000/svg" viewBox="-0.5 -0.5 24 24" height="24" width="24"><title>building-real-eastate-house-1</title><g><path d="M21.907 15.331H12.053v-1.093h-1.1v-2.192h-1.093v-2.192h-1.1v-2.185h-1.093V6.569h9.854V5.477H5.477v1.093H4.384V4.377h1.093V3.285H0v1.093h1.1v9.861H0v2.192h1.1V23h20.808v-6.569H23v-2.192h-1.093ZM2.192 4.377h1.093v5.477H2.192Zm7.669 17.53h-1.1v-5.477h-1.093v5.477H4.384v-2.192h1.093V18.616H4.384v-2.185H3.285v5.477H2.192V14.238h1.093v-2.192H4.384v-2.192h1.093v-1.093h1.1v1.093h1.093v2.192h1.093v2.192h1.1Zm10.954 0H10.954v-5.477h9.861Z" fill="#000000" stroke-width="1"></path><path d="M20.815 12.046h1.093v2.192h-1.093Z" fill="#000000" stroke-width="1"></path><path d="M20.815 2.192h1.093v1.093h-1.093Z" fill="#000000" stroke-width="1"></path><path d="M19.715 9.854h1.1v2.192h-1.1Z" fill="#000000" stroke-width="1"></path><path d="M19.715 1.093h1.1v1.1h-1.1Z" fill="#000000" stroke-width="1"></path><path d="M18.623 7.669h1.093v2.185h-1.093Z" fill="#000000" stroke-width="1"></path><path d="M18.623 3.285h2.192v1.093h-2.192Z" fill="#000000" stroke-width="1"></path><path d="M17.523 0h2.192v1.093h-2.192Z" fill="#000000" stroke-width="1"></path><path d="M19.715 17.523h-3.285v3.285h3.285Zm-1.093 2.192h-1.1V18.616h1.1Z" fill="#000000" stroke-width="1"></path><path d="M17.523 6.569h1.1v1.1h-1.1Z" fill="#000000" stroke-width="1"></path><path d="M17.523 2.192h1.1v1.093h-1.1Z" fill="#000000" stroke-width="1"></path><path d="m14.238 13.139 0 1.1 4.384 0 0 -2.192 -1.1 0 0 1.093 -3.285 0z" fill="#000000" stroke-width="1"></path><path d="M16.431 10.954h1.093v1.093h-1.093Z" fill="#000000" stroke-width="1"></path><path d="M16.431 1.093h1.093v1.1h-1.093Z" fill="#000000" stroke-width="1"></path><path d="M15.338 17.523h-3.285v3.285h3.285Zm-1.1 2.192h-1.093V18.616h1.093Z" fill="#000000" stroke-width="1"></path><path d="M13.146 12.046h1.093v1.093h-1.093Z" fill="#000000" stroke-width="1"></path><path d="m13.146 10.954 3.285 0 0 -1.1 -4.377 0 0 2.192 1.093 0 0 -1.093z" fill="#000000" stroke-width="1"></path><path d="M13.146 1.093h1.093v2.192h-1.093Z" fill="#000000" stroke-width="1"></path><path d="M10.954 0h2.192v1.093h-2.192Z" fill="#000000" stroke-width="1"></path><path d="M7.669 3.285h5.477v1.093h-5.477Z" fill="#000000" stroke-width="1"></path><path d="M9.861 1.093h1.093v1.1h-1.093Z" fill="#000000" stroke-width="1"></path><path d="M7.669 0h2.192v1.093h-2.192Z" fill="#000000" stroke-width="1"></path><path d="M4.384 15.331h3.285v1.1H4.384Z" fill="#000000" stroke-width="1"></path><path d="M6.577 1.093h1.093v2.192H6.577Z" fill="#000000" stroke-width="1"></path><path d="M4.384 0h1.093v1.093H4.384Z" fill="#000000" stroke-width="1"></path><path d="M2.192 1.093h1.093v1.1H2.192Z" fill="#000000" stroke-width="1"></path></g></svg>